<svg viewBox="-27.21404 -5.98 621.89292 66.01768421052631" version="1.1" xmlns:xlink="http://www.w3.org/1999/xlink" preserveAspectRatio="none" xmlns="http://www.w3.org/2000/svg" style="max-height: 500px" width="621.89292" height="66.01768421052631"><path fill="hsl(0, 0%, 100%)" d="M598.8219604492188,0C499.4764157136281,-9.162303924560547,103.27224644025166,-6.675392786661784,3.534031391143799,0C-96.20418365796407,6.675392786661784,-14.136126279830933,32.85340372721354,0.3926701545715332,40.0523567199707C14.921466588973999,47.25130971272787,70.54974246025085,40.968587239583336,90.7068099975586,43.19371795654297C110.86387753486633,45.4188486735026,109.42408116658528,51.70157051086426,121.33507537841797,53.403141021728516C133.24606959025064,55.10471153259277,144.1099484761556,54.18848101298014,162.1727752685547,53.403141021728516C180.23560206095377,52.61780103047689,209.2931900024414,50.91623179117838,229.7120361328125,48.69110107421875C250.1308822631836,46.46597035725912,267.80103556315106,40.44502703348795,284.68585205078125,40.0523567199707C301.57066853841144,39.65968640645345,312.1727650960286,44.63350868225098,331.02093505859375,46.335079193115234C349.8691050211589,48.03664970397949,375,49.738219579060875,397.7748718261719,50.26177978515625C420.54974365234375,50.785339991251625,448.4293263753255,48.821990331014,467.670166015625,49.4764404296875C486.9110056559245,50.130890528361,496.33509318033856,53.14135996500651,513.2199096679688,54.188480377197266C530.104726155599,55.23560078938802,554.5811665852865,55.62827237447103,568.9790649414062,55.75916290283203C583.376963297526,55.89005343119303,594.6334838867188,64.26701736450195,599.6072998046875,54.97382354736328C604.5811157226562,45.68062973022461,698.1675051848093,9.162303924560547,598.8219604492188,0C499.4764157136281,-9.162303924560547,103.27224644025166,-6.675392786661784,3.534031391143799,0"/></svg>
