<svg xmlns="http://www.w3.org/2000/svg" preserveAspectRatio="none" xmlns:xlink="http://www.w3.org/1999/xlink" xmlns:svgjs="http://svgjs.dev/svgjs" version="1.1" viewBox="-45.18 -8.69 686.33 144.69"><path d="M596.4659423828125,2.356020927429199C497.6439567406972,-19.371728897094727,100.52355583508809,-3.1413613955179853,1.1780104637145996,1.5706806182861328C-98.16753490765889,6.282722632090251,-8.246073325475058,24.738220532735188,0.3926701545715332,30.628273010253906C9.031413634618124,36.51832548777262,32.5916227499644,35.20942497253418,53.01047134399414,36.91099548339844C73.42931993802388,38.612565994262695,100.52356274922688,39.26701545715332,122.90576171875,40.83769607543945C145.2879606882731,42.408376693725586,160.47120666503906,45.4188486735026,187.3036651611328,46.335079193115234C214.13612365722656,47.25130971272787,255.89004262288412,47.77486991882324,283.9005126953125,46.335079193115234C311.9109827677409,44.89528846740723,334.424077351888,35.60209401448568,355.3664855957031,37.69633483886719C376.30889383951825,39.790575663248696,389.5287831624349,52.617801666259766,409.5549621582031,58.9005241394043C429.5811411539714,65.18324661254883,454.3193715413411,71.98952802022298,475.5235595703125,75.39266967773438C496.7277475992839,78.79581133524577,522.7748514811198,75.00000254313152,536.7800903320312,79.31937408447266C550.7853291829427,83.6387456258138,550.0000203450521,92.53926467895508,559.5549926757812,101.30889892578125C569.1099650065104,110.07853317260742,587.9580993652344,148.42932589848837,594.1099243164062,131.9371795654297C600.2617492675781,115.44503323237102,695.2879280249277,24.083770751953125,596.4659423828125,2.356020927429199C497.6439567406972,-19.371728897094727,100.52355583508809,-3.1413613955179853,1.1780104637145996,1.5706806182861328" fill="hsl(0, 0%, 100%)" stroke-width="0" stroke="hsl(0, 0%, 90%)"/><defs><linearGradient id="SvgjsLinearGradient1000"><stop stop-color="hsl(340, 45%, 50%)" offset="0"/><stop stop-color="hsl(340, 45%, 80%)" offset="1"/></linearGradient><radialGradient id="SvgjsRadialGradient1001"><stop stop-color="hsl(340, 45%, 50%)" offset="0"/><stop stop-color="hsl(340, 45%, 80%)" offset="1"/></radialGradient></defs></svg>
