<svg xmlns="http://www.w3.org/2000/svg" version="1.1" xmlns:xlink="http://www.w3.org/1999/xlink" xmlns:svgjs="http://svgjs.dev/svgjs" viewBox="0 0 600 600"><path d="M315.7068176269531,121.72774505615234C310.2094370524089,113.21989059448242,301.43979899088544,100.39266840616862,294.50262451171875,94.24083709716797C287.56545003255206,88.08900578816731,281.0209452311198,83.63874689737956,274.0837707519531,84.81675720214844C267.14659627278644,85.99476750691731,253.53402709960938,93.71727752685547,252.87957763671875,101.30889892578125C252.22512817382812,108.90052032470703,263.48167928059894,120.81151072184245,270.1570739746094,130.36648559570312C276.8324686686198,139.9214604695638,289.26702372233075,146.46597290039062,292.93194580078125,158.6387481689453C296.59686787923175,170.8115234375,291.0994873046875,189.9214630126953,292.1466064453125,203.40313720703125C293.1937255859375,216.8848114013672,300.6544545491536,229.31936645507812,299.21466064453125,239.52879333496094C297.7748667399089,249.73822021484375,293.32459767659503,257.4607467651367,283.5078430175781,264.6596984863281C273.6910883585612,271.85865020751953,255.235595703125,278.92669677734375,240.3141326904297,282.7225036621094C225.39266967773438,286.518310546875,207.4607391357422,289.65966796875,193.97906494140625,287.4345397949219C180.4973907470703,285.20941162109375,169.10995229085287,270.02618408203125,159.42408752441406,269.3717346191406C149.73822275797525,268.71728515625,139.1361287434896,275.52354939778644,135.86387634277344,283.5078430175781C132.59162394205728,291.4921366373698,132.7225112915039,308.1151885986328,139.7905731201172,317.2774963378906C146.85863494873047,326.43980407714844,163.3507817586263,336.9110107421875,178.27224731445312,338.481689453125C193.19371287027994,340.0523681640625,211.12565104166666,328.2722524007161,229.31936645507812,326.7015686035156C247.5130818684896,325.1308848063151,270.41883341471356,328.2722473144531,287.4345397949219,329.0575866699219C304.4502461751302,329.8429260253906,316.09946695963544,332.4607238769531,331.4136047363281,331.4136047363281C346.7277425130208,330.3664855957031,364.9214579264323,325.78533935546875,379.3193664550781,322.7748718261719C393.71727498372394,319.764404296875,406.28273010253906,319.24085489908856,417.8010559082031,313.3507995605469C429.3193817138672,307.4607442220052,438.8743489583333,295.28794352213544,448.4293212890625,287.4345397949219C457.9842936197917,279.5811360677083,467.67015584309894,273.16754659016925,475.1308898925781,266.2303771972656C482.5916239420573,259.293207804362,485.8638865152995,250.9162368774414,493.1937255859375,245.8115234375C500.5235646565755,240.7068099975586,512.9580891927084,243.58639017740884,519.1099243164062,235.6020965576172C525.2617594401041,227.61780293782553,531.5445251464844,206.6753946940104,530.104736328125,197.90576171875C528.6649475097656,189.1361287434896,519.1099395751953,187.43456013997397,510.47119140625,182.9842987060547C501.8324432373047,178.5340372721354,487.1727701822917,168.97906239827475,478.2722473144531,171.20419311523438C469.37172444661456,173.429323832194,463.8743387858073,189.26702117919922,457.06805419921875,196.3350830078125C450.2617696126302,203.40314483642578,444.5025990804036,208.37696329752603,437.4345397949219,213.61256408691406C430.3664805094401,218.8481648763021,420.54974873860675,221.72774505615234,414.6596984863281,227.74868774414062C408.7696482340495,233.7696304321289,409.29319254557294,243.19371541341147,402.09423828125,249.73822021484375C394.89528401692706,256.28272501627606,379.8429361979167,267.2774963378906,371.4659729003906,267.0157165527344C363.08900960286456,266.7539367675781,355.7591603597005,257.1989568074544,351.83245849609375,248.16754150390625C347.905756632487,239.13612620035806,349.73822021484375,224.73822021484375,347.90576171875,212.8272247314453C346.07330322265625,200.91622924804688,344.2408498128255,187.95811208089194,340.83770751953125,176.70156860351562C337.434565226237,165.4450251261393,331.6753896077474,154.45026779174805,327.4869079589844,145.2879638671875C323.2984263102214,136.12565994262695,321.2041982014974,130.23559951782227,315.7068176269531,121.72774505615234C310.2094370524089,113.21989059448242,301.43979899088544,100.39266840616862,294.50262451171875,94.24083709716797" fill="hsl(0, 0%, 100%)"></path></svg>
