<svg xmlns="http://www.w3.org/2000/svg" version="1.1" xmlns:xlink="http://www.w3.org/1999/xlink" xmlns:svgjs="http://svgjs.dev/svgjs" viewBox="0 0 600 600"><path d="M594.1099243164062,146.07330322265625C593.5863647460938,111.38744036356607,597.3821716308594,54.58115418752034,590.9685668945312,32.98429489135742C584.5549621582031,11.3874355951945,568.4555155436198,12.041886011759441,555.6282958984375,16.49214744567871C542.8010762532552,20.94240887959798,519.6335245768229,45.15706729888916,514.0052490234375,59.68586349487305C508.37697347005206,74.21465969085693,518.5863952636719,82.06806627909343,521.858642578125,103.66492462158203C525.1308898925781,125.26178296407063,533.376953125,163.08900578816733,533.6387329101562,189.2670135498047C533.9005126953125,215.44502131144205,525.3926696777344,239.6596705118815,523.4293212890625,260.73297119140625C521.4659729003906,281.80627187093097,523.1675415039062,294.2408447265625,521.858642578125,315.7068176269531C520.5497436523438,337.17279052734375,516.3612670898438,366.623051961263,515.575927734375,389.52880859375C514.7905883789062,412.434565226237,517.4083862304688,435.47120157877606,517.1466064453125,453.141357421875C516.8848266601562,470.81151326497394,522.6439921061198,486.1256612141927,514.0052490234375,495.54974365234375C505.3665059407552,504.9738260904948,486.2565561930339,507.1989440917969,465.31414794921875,509.68585205078125C444.3717397054036,512.1727600097656,415.83771260579425,513.3507690429688,388.3507995605469,510.47119140625C360.8638865152995,507.59161376953125,331.67539469401044,494.2408447265625,300.3926696777344,492.40838623046875C269.1099446614583,490.575927734375,229.18848164876303,497.5130920410156,200.65444946289062,499.4764404296875C172.12041727701822,501.4397888183594,155.3664868672689,504.1884765625,129.1884765625,504.1884765625C103.01046625773112,504.1884765625,63.21989456812541,496.4659729003906,43.586387634277344,499.4764404296875C23.95288070042928,502.4869079589844,17.01570717493693,509.1622721354167,11.387434959411621,522.2512817382812C5.7591627438863116,535.3402913411459,0.5235603650410976,566.7539469401041,9.816754341125488,578.010498046875C19.109948317209877,589.2670491536459,29.319373607635498,588.3507995605469,67.14659881591797,589.7905883789062C104.97382402420044,591.2303771972656,198.95287958780924,586.387451171875,236.7801055908203,586.6492309570312C274.60733159383136,586.9110107421875,269.37173716227215,590.8377075195312,294.1099548339844,591.3612670898438C318.8481725056966,591.8848266601562,356.6753794352214,592.2774963378906,385.20941162109375,589.7905883789062C413.7434438069661,587.3036804199219,441.2303771972656,578.1413879394531,465.31414794921875,576.4398193359375C489.3979187011719,574.7382507324219,511.2565409342448,579.1885070800781,529.7120361328125,579.5811767578125C548.1675313313802,579.9738464355469,566.2303670247396,589.1361592610677,576.047119140625,578.7958374023438C585.8638712565104,568.4555155436198,586.2565307617188,546.5968424479166,588.612548828125,517.5392456054688C590.9685668945312,488.4816487630208,590.5758972167969,435.8638661702474,590.1832275390625,404.45025634765625C589.7905578613281,373.0366465250651,585.6020812988281,356.28271738688153,586.2565307617188,329.0575866699219C586.9109802246094,301.8324559529622,592.801025390625,271.5968526204427,594.1099243164062,241.09947204589844C595.4188232421875,210.60209147135416,594.6334838867188,180.75916608174643,594.1099243164062,146.07330322265625C593.5863647460938,111.38744036356607,597.3821716308594,54.58115418752034,590.9685668945312,32.98429489135742" fill="#AFD6ED"></path></svg>
