<svg xmlns="http://www.w3.org/2000/svg" preserveAspectRatio="none" xmlns:xlink="http://www.w3.org/1999/xlink" xmlns:svgjs="http://svgjs.dev/svgjs" version="1.1" viewBox="8.45 213.04 583.1 173.93"><path d="M333.38728263586654 114.41167703602719C430.90036855747195 112.05565388335793 553.5443362654238 103.67868041330581 594.9055931827415 97.91952005360531C636.2668501000593 92.16035969390481 586.9213097354759 92.55304717355972 581.5548241397728 79.85671487782406C576.1883385440697 67.1603825820884 572.1307620466738 36.40121459299334 562.7066796085228 21.74152627919125C553.2825971703718 7.081837965389155 536.1359856387962 1.9771194391847473 525.0103295108665 -8.10141500498844C513.8846733829369 -18.179949449161626 505.50771517167385 -28.782038377384282 495.95274284094467 -38.729680385847814C486.3977705102155 -48.677322394311346 479.1988213321556 -67.13281759287906 467.68049552649154 -67.78726705576969C456.1621697208275 -68.44171651866031 438.36111381262435 -48.415537522892095 426.8427880069603 -42.656377163191564C415.3244622012962 -36.897216803491034 405.7694949568301 -38.467905686954595 398.57054069250717 -33.232304897566564C391.37158642818423 -27.996704108178534 401.31921826412173 -21.713976548771 383.6490624210228 -11.24277242686344C365.97890657792385 -0.7715683049558777 325.0103371402611 20.170837395727716 292.5496056339134 29.59491983387875C260.08887412756576 39.01900227202978 214.80090517411523 38.102770480851404 188.88467338293685 45.30172220204281C162.96844159175848 52.50067392323422 157.9946237664411 65.19700621896988 137.0522148868431 72.78863016102719C116.10980600724513 80.3802541030845 84.43440964430465 84.30696105295425 63.23022010534896 90.85146585438656C42.026030566393274 97.39597065581887 -35.19909943531062 108.12895710601418 9.827077653108972 112.05565896962094C54.853254741528566 115.98236083322769 235.87419671426113 116.76770018869644 333.38728263586654 114.41167703602719C430.90036855747195 112.05565388335793 553.5443362654238 103.67868041330581 594.9055931827415 97.91952005360531 " fill="#676775" transform="matrix(0.9476249999999999,0,0,0.9476250000000002,12.27653156232833,277.2882689065933)"/></svg>
