<svg xmlns="http://www.w3.org/2000/svg" preserveAspectRatio="none" xmlns:xlink="http://www.w3.org/1999/xlink" xmlns:svgjs="http://svgjs.dev/svgjs" version="1.1" viewBox="-25.48 490.64 655.76 104.94"><path d="M23.167539596557617,594.5026245117188C-73.16753760973613,592.2774963378906,3.27225128809611,584.8167826334635,3.534031391143799,579.5811767578125C3.795811494191488,574.3455708821615,15.706806898117065,567.801035563151,24.73822021484375,563.0889892578125C33.769633531570435,558.376942952474,42.67015584309896,554.3193664550781,57.722511291503906,551.3088989257812C72.77486673990886,548.2984313964844,97.2513058980306,549.3455505371094,115.05235290527344,545.0261840820312C132.85339991251627,540.7068176269531,145.28795623779297,531.4136454264323,164.52879333496094,525.3927001953125C183.7696304321289,519.3717549641927,212.56543731689453,509.81675211588544,230.49737548828125,508.9005126953125C248.42931365966797,507.98427327473956,256.15183512369794,519.895263671875,272.12042236328125,519.895263671875C288.08900960286456,519.895263671875,307.9842936197917,513.7434387207031,326.30889892578125,508.9005126953125C344.6335042317708,504.0575866699219,363.4816640218099,492.1466064453125,382.06805419921875,490.83770751953125C400.6544443766276,489.52880859375,418.717290242513,495.0261739095052,437.8272399902344,501.047119140625C456.93718973795575,507.0680643717448,476.83246358235675,518.3246358235677,496.7277526855469,526.96337890625C516.6230417887369,535.6021219889323,540.1832733154297,543.8481648763021,557.198974609375,552.8795776367188C574.2146759033203,561.9109903971354,594.7643737792969,574.4764607747396,598.8219604492188,581.15185546875C602.8795471191406,587.8272501627604,677.4868981043497,590.7068176269531,581.5444946289062,592.9319458007812C485.6020911534627,595.1570739746094,119.50261680285136,596.7277526855469,23.167539596557617,594.5026245117188C-73.16753760973613,592.2774963378906,3.27225128809611,584.8167826334635,3.534031391143799,579.5811767578125" fill="#EAD39C"/></svg>
