<svg viewBox="3.1158200000000065 -2.27 590.28446 39.11888888888889" preserveAspectRatio="none" version="1.1" xmlns:xlink="http://www.w3.org/1999/xlink" xmlns="http://www.w3.org/2000/svg" style="max-height: 500px" width="590.28446" height="39.11888888888889"><path fill="hsl(0, 0%, 100%)" d="M597.2512817382812,2.356020927429199C497.7748469511668,-3.0104715029398603,101.83245619138081,-3.9267017046610517,2.7486910820007324,0.7853403091430664C-96.33507402737935,5.4973823229471845,-10.602093935012817,25.39267110824585,2.7486910820007324,30.628273010253906C16.099476099014282,35.86387491226196,54.18847966194153,32.198951721191406,82.85340118408203,32.198951721191406C111.51832270622253,32.198951721191406,143.32460657755533,30.890052795410156,174.73822021484375,30.628273010253906C206.15183385213217,30.366493225097656,239.00523885091147,30.75916322072347,271.3350830078125,30.628273010253906C303.66492716471356,30.497382799784344,338.0890146891276,29.45026143391927,368.71728515625,29.842931747436523C399.3455556233724,30.235602060953777,426.7015686035156,32.72251478830973,455.1047058105469,32.98429489135742C483.5078430175781,33.24607499440511,515.0523427327474,31.413612365722656,539.1361083984375,31.413612365722656C563.2198740641276,31.413612365722656,589.9214375813802,37.82722679773966,599.6072998046875,32.98429489135742C609.2931620279948,28.141362984975178,696.7277165253957,7.722513357798259,597.2512817382812,2.356020927429199C497.7748469511668,-3.0104715029398603,101.83245619138081,-3.9267017046610517,2.7486910820007324,0.7853403091430664"/></svg>
