<svg viewBox="17.94 156.25 562.148 258.35220048899754" preserveAspectRatio="none" version="1.1" xmlns:xlink="http://www.w3.org/1999/xlink" xmlns="http://www.w3.org/2000/svg" style="max-height: 500px" width="562.148" height="258.35220048899754"><path fill="hsl(0, 0%, 100%)" d="M-0.3926701545715332,395.02618408203125C-20.026178280512493,358.6387481689453,-15.18324589729309,214.65968322753906,-0.3926701545715332,178.27224731445312C14.397905588150024,141.8848114013672,59.0314126809438,176.70156860351562,88.35078430175781,176.70156860351562C117.67015592257182,176.70156860351562,146.59686024983725,178.79580688476562,175.5235595703125,178.27224731445312C204.45025889078775,177.74868774414062,232.59160868326822,174.4764404296875,261.9109802246094,173.56021118164062C291.2303517659505,172.64398193359375,319.37172444661456,173.69110361735025,351.4397888183594,172.77487182617188C383.5078531901042,171.8586400349935,423.952875773112,168.71726989746094,454.3193664550781,168.0628204345703C484.68585713704425,167.4083709716797,509.424077351888,167.80105336507162,533.6387329101562,168.84817504882812C557.8533884684244,169.89529673258463,588.612538655599,136.51832580566406,599.6072998046875,174.34555053710938C610.602060953776,212.1727752685547,622.3821614583334,358.90052795410156,599.6072998046875,395.8115234375C576.8324381510416,432.72251892089844,504.8429412841797,395.2879638671875,462.9581298828125,395.8115234375C421.0733184814453,396.3350830078125,387.56545003255206,398.16754150390625,348.2984313964844,398.952880859375C309.0314127604167,399.73822021484375,265.8376935323079,400.9162292480469,227.35601806640625,400.5235595703125C188.87434260050455,400.1308898925781,155.36649330457053,397.5130920410156,117.40837860107422,396.59686279296875C79.45026389757791,395.6806335449219,19.240837971369427,431.4136199951172,-0.3926701545715332,395.02618408203125C-20.026178280512493,358.6387481689453,-15.18324589729309,214.65968322753906,-0.3926701545715332,178.27224731445312"/></svg>
